<svg id="eSXQpHKd6JV1" xmlns="http://www.w3.org/2000/svg" xmlns:xlink="http://www.w3.org/1999/xlink" viewBox="0 0 102 102" shape-rendering="geometricPrecision" text-rendering="geometricPrecision"><style><![CDATA[#eSXQpHKd6JV3_tr {animation: eSXQpHKd6JV3_tr__tr 3000ms linear 1 normal forwards}@keyframes eSXQpHKd6JV3_tr__tr { 0% {transform: translate(51.002964px,51.001551px) rotate(0deg)} 3.333333% {transform: translate(51.002964px,51.001551px) rotate(15deg)} 6.666667% {transform: translate(51.002964px,51.001551px) rotate(0deg)} 10% {transform: translate(51.002964px,51.001551px) rotate(-15deg)} 13.333333% {transform: translate(51.002964px,51.001551px) rotate(0deg)} 16.666667% {transform: translate(51.002964px,51.001551px) rotate(10deg)} 20% {transform: translate(51.002964px,51.001551px) rotate(0deg)} 23.333333% {transform: translate(51.002964px,51.001551px) rotate(-10deg)} 26.666667% {transform: translate(51.002964px,51.001551px) rotate(0deg)} 30% {transform: translate(51.002964px,51.001551px) rotate(7deg)} 33.333333% {transform: translate(51.002964px,51.001551px) rotate(0deg)} 36.666667% {transform: translate(51.002964px,51.001551px) rotate(-7deg)} 40% {transform: translate(51.002964px,51.001551px) rotate(0deg)} 43.333333% {transform: translate(51.002964px,51.001551px) rotate(5deg)} 46.666667% {transform: translate(51.002964px,51.001551px) rotate(0deg)} 50% {transform: translate(51.002964px,51.001551px) rotate(-5deg)} 53.333333% {transform: translate(51.002964px,51.001551px) rotate(0deg)} 56.666667% {transform: translate(51.002964px,51.001551px) rotate(3.500000deg)} 60% {transform: translate(51.002964px,51.001551px) rotate(0deg)} 63.333333% {transform: translate(51.002964px,51.001551px) rotate(-3.500000deg)} 66.666667% {transform: translate(51.002964px,51.001551px) rotate(0deg)} 70% {transform: translate(51.002964px,51.001551px) rotate(2deg)} 73.333333% {transform: translate(51.002964px,51.001551px) rotate(0deg)} 76.666667% {transform: translate(51.002964px,51.001551px) rotate(-2deg)} 80% {transform: translate(51.002964px,51.001551px) rotate(0deg)} 83.333333% {transform: translate(51.002964px,51.001551px) rotate(1deg)} 86.666667% {transform: translate(51.002964px,51.001551px) rotate(0deg)} 90% {transform: translate(51.002964px,51.001551px) rotate(-1deg)} 93.333333% {transform: translate(51.002964px,51.001551px) rotate(0deg)} 100% {transform: translate(51.002964px,51.001551px) rotate(0deg)}}]]></style><defs><linearGradient id="eSXQpHKd6JV5-fill" x1="51.002900" y1="41.306800" x2="51.002900" y2="60.696300" spreadMethod="pad" gradientUnits="userSpaceOnUse"><stop id="eSXQpHKd6JV5-fill-0" offset="0%" stop-color="rgb(255,251,251)"/><stop id="eSXQpHKd6JV5-fill-1" offset="100%" stop-color="rgba(255,251,251,0)"/></linearGradient></defs><g id="eSXQpHKd6JV2" clip-path="url(#eSXQpHKd6JV6)"><g id="eSXQpHKd6JV3_tr" transform="translate(51.002964,51.001551) rotate(0)"><g id="eSXQpHKd6JV3" transform="translate(-51.002964,-51.001551)"><path id="eSXQpHKd6JV4" d="M16.750100,41.306800C17.464100,42.451100,17.766900,43.614500,17.766900,45.090300C17.766900,49.807800,13.728300,55.931000,10.461100,60.266000L3.024680,60.266000L0.002930,42.336300L6.543680,41.689300L8.121490,54.439300C9.616430,52.064600,11.439700,48.277800,11.439700,45.689600C11.439700,44.296600,11.175100,43.314900,10.792600,42.502100L16.750100,41.306800ZM25.247900,49.173500C26.430500,49.173500,29.496900,48.625300,29.496900,46.916800C29.496900,46.072100,28.900800,45.638600,28.221900,45.638600C26.994700,45.638600,25.413700,47.133500,25.247900,49.173500ZM25.117200,52.577800C25.117200,54.703800,26.264700,55.548500,27.842600,55.548500C29.535100,55.548500,31.109700,55.118200,33.235800,54.056800L32.423000,59.415000C30.944000,60.129000,28.636200,60.613500,26.395400,60.613500C20.734400,60.613500,18.691200,57.209200,18.691200,52.874200C18.691200,47.299300,22.015800,41.386500,28.817900,41.386500C32.553700,41.386500,34.679700,43.477500,34.679700,46.419500C34.679700,51.086000,28.601200,52.577800,25.117200,52.612800L25.117200,52.577800ZM53.559300,45.469600C53.559300,46.199600,53.422200,47.181300,53.342600,47.863500L51.382200,60.266000L45.007200,60.266000L46.801800,48.877100L46.916600,47.598900C46.916600,46.754200,46.419300,46.588500,45.820100,46.588500C44.956200,46.588500,44.111600,46.971000,43.614300,47.216400L41.571100,60.269200L35.196100,60.269200L38.087200,41.692500L43.617500,41.692500L43.697200,43.184200C45.010400,42.339500,46.754000,41.357800,49.176500,41.357800C52.399100,41.357800,53.562500,43.053500,53.562500,45.527000L53.559300,45.469600ZM72.467600,43.397800C74.290800,42.119600,75.986600,41.354600,78.409100,41.354600C81.647600,41.354600,82.791900,43.050300,82.791900,45.523800C82.780700,46.309100,82.709300,47.092300,82.578300,47.866600L80.618000,60.269200L74.243000,60.269200L76.066200,48.663500L76.168200,47.732800C76.168200,46.805200,75.655100,46.588500,75.004800,46.588500C74.243000,46.588500,73.446100,46.920000,72.878700,47.216400L70.854700,60.269200L64.479700,60.269200L66.306100,48.628500L66.385800,47.732800C66.385800,46.805200,65.872600,46.588500,65.241500,46.588500C64.374500,46.588500,63.580800,46.971000,63.013400,47.216400L61.021200,60.234100L54.617600,60.234100L57.537300,41.692500L62.981600,41.692500L63.198300,43.235200C64.476500,42.288500,66.169100,41.357800,68.460900,41.357800C70.504100,41.357800,71.785400,42.208800,72.464400,43.401000L72.467600,43.397800ZM95.459000,48.791000C95.459000,47.299300,95.076500,46.237800,93.964100,46.237800C91.426800,46.237800,90.913600,50.703500,90.913600,52.960300C90.913600,54.703800,91.375800,55.765300,92.523300,55.765300C94.894800,55.765300,95.459000,51.086000,95.459000,48.791000ZM84.401600,52.692500C84.401600,46.837100,87.560400,41.354600,94.649400,41.354600C100.043000,41.354600,102.003000,44.542100,102.003000,48.928100C102.003000,54.703800,98.946100,60.696300,91.627600,60.696300C86.231200,60.696300,84.401600,57.161400,84.401600,52.692500Z" fill="rgb(195,164,116)" stroke="none" stroke-width="1"/><path id="eSXQpHKd6JV5" d="M16.750100,41.306800C17.464100,42.451100,17.766900,43.614500,17.766900,45.090300C17.766900,49.807800,13.728300,55.931000,10.461100,60.266000L3.024680,60.266000L0.002930,42.336300L6.543680,41.689300L8.121490,54.439300C9.616430,52.064600,11.439700,48.277800,11.439700,45.689600C11.439700,44.296600,11.175100,43.314900,10.792600,42.502100L16.750100,41.306800ZM25.247900,49.173500C26.430500,49.173500,29.496900,48.625300,29.496900,46.916800C29.496900,46.072100,28.900800,45.638600,28.221900,45.638600C26.994700,45.638600,25.413700,47.133500,25.247900,49.173500ZM25.117200,52.577800C25.117200,54.703800,26.264700,55.548500,27.842600,55.548500C29.535100,55.548500,31.109700,55.118200,33.235800,54.056800L32.423000,59.415000C30.944000,60.129000,28.636200,60.613500,26.395400,60.613500C20.734400,60.613500,18.691200,57.209200,18.691200,52.874200C18.691200,47.299300,22.015800,41.386500,28.817900,41.386500C32.553700,41.386500,34.679700,43.477500,34.679700,46.419500C34.679700,51.086000,28.601200,52.577800,25.117200,52.612800L25.117200,52.577800ZM53.559300,45.469600C53.559300,46.199600,53.422200,47.181300,53.342600,47.863500L51.382200,60.266000L45.007200,60.266000L46.801800,48.877100L46.916600,47.598900C46.916600,46.754200,46.419300,46.588500,45.820100,46.588500C44.956200,46.588500,44.111600,46.971000,43.614300,47.216400L41.571100,60.269200L35.196100,60.269200L38.087200,41.692500L43.617500,41.692500L43.697200,43.184200C45.010400,42.339500,46.754000,41.357800,49.176500,41.357800C52.399100,41.357800,53.562500,43.053500,53.562500,45.527000L53.559300,45.469600ZM72.467600,43.397800C74.290800,42.119600,75.986600,41.354600,78.409100,41.354600C81.647600,41.354600,82.791900,43.050300,82.791900,45.523800C82.780700,46.309100,82.709300,47.092300,82.578300,47.866600L80.618000,60.269200L74.243000,60.269200L76.066200,48.663500L76.168200,47.732800C76.168200,46.805200,75.655100,46.588500,75.004800,46.588500C74.243000,46.588500,73.446100,46.920000,72.878700,47.216400L70.854700,60.269200L64.479700,60.269200L66.306100,48.628500L66.385800,47.732800C66.385800,46.805200,65.872600,46.588500,65.241500,46.588500C64.374500,46.588500,63.580800,46.971000,63.013400,47.216400L61.021200,60.234100L54.617600,60.234100L57.537300,41.692500L62.981600,41.692500L63.198300,43.235200C64.476500,42.288500,66.169100,41.357800,68.460900,41.357800C70.504100,41.357800,71.785400,42.208800,72.464400,43.401000L72.467600,43.397800ZM95.459000,48.791000C95.459000,47.299300,95.076500,46.237800,93.964100,46.237800C91.426800,46.237800,90.913600,50.703500,90.913600,52.960300C90.913600,54.703800,91.375800,55.765300,92.523300,55.765300C94.894800,55.765300,95.459000,51.086000,95.459000,48.791000ZM84.401600,52.692500C84.401600,46.837100,87.560400,41.354600,94.649400,41.354600C100.043000,41.354600,102.003000,44.542100,102.003000,48.928100C102.003000,54.703800,98.946100,60.696300,91.627600,60.696300C86.231200,60.696300,84.401600,57.161400,84.401600,52.692500Z" fill="url(#eSXQpHKd6JV5-fill)" fill-opacity="0.2" stroke="none" stroke-width="1"/></g></g><clipPath id="eSXQpHKd6JV6"><rect id="eSXQpHKd6JV7" width="102" height="102" rx="0" ry="0" fill="rgb(255,255,255)" stroke="none" stroke-width="1"/></clipPath></g></svg>